<svg width="35" height="35" viewBox="0 0 35 35" fill="none" xmlns="http://www.w3.org/2000/svg">
<path d="M33.9999 23.4999C33.9999 29.3049 29.3049 33.9999 23.4999 33.9999L25.0749 31.3749" stroke="white" stroke-opacity="0.7" stroke-linecap="round" stroke-linejoin="round"/>
<path d="M1 11.5C1 5.695 5.695 1 11.5 1L9.925 3.625" stroke="white" stroke-opacity="0.7" stroke-linecap="round" stroke-linejoin="round"/>
<path d="M21.7751 22.54C21.7751 27.6549 17.6351 31.7948 12.5201 31.7948C7.40514 31.7948 3.26514 27.6549 3.26514 22.54C3.26514 17.425 7.40514 13.2848 12.5201 13.2848C12.7601 13.2848 12.9851 13.2998 13.2401 13.3148C17.7851 13.6598 21.4151 17.2898 21.7601 21.8348C21.7601 22.0598 21.7751 22.285 21.7751 22.54Z" stroke="white" stroke-opacity="0.7" stroke-miterlimit="10" stroke-linecap="round" stroke-linejoin="round"/>
<path d="M31.75 12.5501C31.75 17.6651 27.61 21.8051 22.495 21.8051H21.76C21.415 17.2601 17.785 13.6301 13.24 13.2851V12.5501C13.24 7.43507 17.38 3.2951 22.495 3.2951C27.61 3.2951 31.75 7.43507 31.75 12.5501Z" stroke="white" stroke-opacity="0.7" stroke-miterlimit="10" stroke-linecap="round" stroke-linejoin="round"/>
<path d="M14.6795 23.8757C14.6795 24.3309 14.5009 24.7601 14.177 25.0836C13.8534 25.4075 13.4243 25.5861 12.9691 25.5861H12.8939V26.249C12.8939 26.371 12.7949 26.47 12.673 26.47C12.551 26.47 12.452 26.371 12.452 26.249V25.5861H12.4122C11.5402 25.5861 10.8096 24.932 10.7119 24.064C10.6982 23.9429 10.7858 23.8337 10.9069 23.8196C11.0262 23.8076 11.1376 23.8933 11.1513 24.0144C11.2237 24.6584 11.7656 25.1441 12.4122 25.1441H12.9691C13.3063 25.1441 13.6241 25.0115 13.8645 24.7711C14.1049 24.5307 14.2375 24.2129 14.2375 23.8757C14.2375 23.2945 13.8424 22.788 13.2771 22.6448L11.9963 22.327C11.6255 22.2333 11.294 22.0167 11.062 21.7175C10.8304 21.4241 10.7018 21.0506 10.7018 20.6674C10.7018 19.7243 11.469 18.957 12.4122 18.957H12.452V18.2941C12.452 18.1721 12.551 18.0731 12.673 18.0731C12.7949 18.0731 12.8939 18.1721 12.8939 18.2941V18.957H12.9691C13.8411 18.957 14.5716 19.6111 14.6693 20.4791C14.683 20.6002 14.5955 20.7094 14.4744 20.7236C14.3551 20.7368 14.2441 20.6498 14.23 20.5287C14.1575 19.8847 13.6157 19.399 12.9691 19.399H12.4122C11.7126 19.399 11.1437 19.9682 11.1437 20.6674C11.1437 20.9516 11.2383 21.2278 11.4098 21.4453C11.5831 21.6685 11.8292 21.8289 12.1037 21.8983L13.3845 22.2161C14.1473 22.4092 14.6795 23.0916 14.6795 23.8757Z" fill="white"/>
<path d="M25.5702 15.8874C25.5243 15.7739 25.3952 15.7199 25.283 15.765C24.8865 15.9246 24.468 16.0054 24.0397 16.0054C22.5998 16.0054 21.3747 15.0808 20.9185 13.7956H23.5973C23.7193 13.7956 23.8183 13.6966 23.8183 13.5746C23.8183 13.4526 23.7193 13.3536 23.5973 13.3536H20.7913C20.7475 13.1393 20.7245 12.9179 20.7245 12.6907C20.7245 12.4635 20.7475 12.2421 20.7913 12.0277H23.5973C23.7193 12.0277 23.8183 11.9287 23.8183 11.8068C23.8183 11.6848 23.7193 11.5858 23.5973 11.5858H20.9181C21.3747 10.3005 22.5993 9.37595 24.0393 9.37595C24.4711 9.37595 24.8887 9.45815 25.2808 9.61991C25.3935 9.66632 25.5229 9.61329 25.5694 9.50014C25.6158 9.38744 25.5623 9.25797 25.4496 9.21156C25.0036 9.02726 24.5294 8.93398 24.0393 8.93398C22.3523 8.93398 20.9216 10.0522 20.4487 11.5858H19.1776C19.0557 11.5858 18.9567 11.6848 18.9567 11.8068C18.9567 11.9287 19.0557 12.0277 19.1776 12.0277H20.3449C20.3064 12.2434 20.2826 12.464 20.2826 12.6907C20.2826 12.9174 20.306 13.138 20.3449 13.3536H19.1776C19.0557 13.3536 18.9567 13.4526 18.9567 13.5746C18.9567 13.6966 19.0557 13.7956 19.1776 13.7956H20.4487C20.9216 15.3292 22.3523 16.4474 24.0393 16.4474C24.5245 16.4474 24.9983 16.3555 25.4478 16.1752C25.561 16.1296 25.6158 16.0006 25.5702 15.8874Z" fill="white"/>
</svg>
