<svg width="19" height="19" viewBox="0 0 19 19" fill="none" xmlns="http://www.w3.org/2000/svg">
<path fill-rule="evenodd" clip-rule="evenodd" d="M13.6562 12.091C13.6562 13.7638 11.9859 15.4375 9.5 15.4375C7.01413 15.4375 5.34375 13.7638 5.34375 12.091C5.34375 10.3559 6.47223 8.19517 7.79862 6.31412C8.39812 5.46392 8.99979 4.72334 9.4703 4.17625C9.94975 4.76609 10.5719 5.56901 11.1918 6.47515C11.8381 7.41994 12.4667 8.45489 12.9299 9.46215C13.4016 10.4879 13.6562 11.3885 13.6562 12.091ZM4.15625 12.091C4.15625 8.8629 7.20292 4.97026 8.69533 3.25709C9.17944 2.70139 9.5 2.375 9.5 2.375C9.5 2.375 9.80711 2.71449 10.2741 3.28317C11.755 5.08665 14.8438 9.19524 14.8438 12.091C14.8438 14.5951 12.4513 16.625 9.5 16.625C6.54873 16.625 4.15625 14.5951 4.15625 12.091ZM6.82714 10.0938H8.10464C7.86427 10.6423 7.71875 11.1626 7.71875 11.6052C7.71875 12.2848 8.38353 13.0625 9.5 13.0625V14.25C7.8604 14.25 6.53125 13.0659 6.53125 11.6052C6.53125 11.1177 6.64466 10.6043 6.82714 10.0938Z" fill="white" fill-opacity="0.6"/>
</svg>
