<svg width="184" height="71" viewBox="0 0 184 71" fill="none" xmlns="http://www.w3.org/2000/svg">
<line y1="70.0454" x2="184" y2="70.0454" stroke="white" stroke-opacity="0.2" stroke-width="1.04545"/>
<path d="M26.1367 70.568C27.1478 48.6134 41.7883 4.70435 92.2617 4.70435C142.735 4.70435 157.376 48.6134 158.387 70.568" stroke="white" stroke-opacity="0.2" stroke-width="1.04545" stroke-dasharray="2.61 2.61"/>
<path d="M26.1367 70.568C27.1478 48.6134 41.7883 4.70435 92.2617 4.70435" stroke="#FAC32D" stroke-width="1.04545" stroke-dasharray="2.61 2.61"/>
<g clip-path="url(#clip0_707_5905)">
<path fill-rule="evenodd" clip-rule="evenodd" d="M91.9508 1.55184V0.620728H92.5716V1.55184H91.9508ZM93.6994 1.85408L94.165 1.04771L94.7026 1.35808L94.237 2.16445L93.6994 1.85408ZM92.2612 7.13848C93.4611 7.13848 94.4338 6.16578 94.4338 4.9659C94.4338 3.76601 93.4611 2.79331 92.2612 2.79331C91.0613 2.79331 90.0886 3.76601 90.0886 4.9659C90.0886 6.16578 91.0613 7.13848 92.2612 7.13848ZM92.2612 7.75922C93.8039 7.75922 95.0545 6.50861 95.0545 4.9659C95.0545 3.42319 93.8039 2.17257 92.2612 2.17257C90.7185 2.17257 89.4679 3.42319 89.4679 4.9659C89.4679 6.50861 90.7185 7.75922 92.2612 7.75922ZM95.6752 4.65553H96.6064V5.27627H95.6752V4.65553ZM95.869 2.52453L95.0627 2.99008L95.373 3.52765L96.1794 3.0621L95.869 2.52453ZM89.8198 1.35808L90.2854 2.16445L90.8229 1.85408L90.3574 1.04771L89.8198 1.35808ZM89.1493 3.52765L88.343 3.0621L88.6534 2.52453L89.4597 2.99008L89.1493 3.52765ZM91.9508 8.37996V9.31107H92.5716V8.37996H91.9508ZM88.8471 4.65553H87.916V5.27627H88.8471V4.65553ZM88.343 6.8697L89.1493 6.40414L89.4597 6.94172L88.6533 7.40727L88.343 6.8697ZM90.2854 7.76741L89.8198 8.57377L90.3574 8.88414L90.823 8.07778L90.2854 7.76741ZM94.165 8.88414L93.6994 8.07778L94.237 7.76741L94.7026 8.57377L94.165 8.88414ZM95.0627 6.94172L95.869 7.40727L96.1794 6.8697L95.373 6.40414L95.0627 6.94172Z" fill="#FAC32D"/>
</g>
<circle cx="92.2605" cy="4.96598" r="2.17259" fill="#DFAC20"/>
<line x1="20.3857" y1="69.784" x2="31.8857" y2="69.784" stroke="#FAC32D" stroke-width="1.56818"/>
<line x1="152.637" y1="69.7841" x2="164.137" y2="69.7841" stroke="#FAC32D" stroke-width="1.56818"/>
<path d="M92.0004 5.23389C42.6155 4.60918 27.5143 48.5298 26.1367 70.5682H92.0004V5.23389Z" fill="url(#paint0_linear_707_5905)" fill-opacity="0.4"/>
<defs>
<linearGradient id="paint0_linear_707_5905" x1="59.0685" y1="5.22729" x2="59.0685" y2="70.5682" gradientUnits="userSpaceOnUse">
<stop stop-color="#FAC32D"/>
<stop offset="0.479167" stop-color="#FAC32D" stop-opacity="0.32"/>
<stop offset="0.953125" stop-color="#FAC32D" stop-opacity="0"/>
</linearGradient>
<clipPath id="clip0_707_5905">
<rect width="9.93182" height="9.93182" fill="white" transform="translate(87.2949)"/>
</clipPath>
</defs>
</svg>
